<mxfile host="app.diagrams.net" modified="2024-05-19T13:39:18.029Z" agent="Mozilla/5.0 (Macintosh; Intel Mac OS X 10_15_7) AppleWebKit/537.36 (KHTML, like Gecko) Chrome/124.0.0.0 Safari/537.36" etag="ChFo9nTGtBIA7z_jMAYE" version="24.4.4" type="device">
  <diagram name="Page-1" id="H17z1Y_cHy1cBSQbOlY2">
    <mxGraphModel dx="746" dy="458" grid="1" gridSize="10" guides="1" tooltips="1" connect="1" arrows="1" fold="1" page="1" pageScale="1" pageWidth="1200" pageHeight="3000" math="0" shadow="0">
      <root>
        <mxCell id="0" />
        <mxCell id="1" parent="0" />
        <mxCell id="_EaelXhhroBqvKa-fgG_-22" style="edgeStyle=orthogonalEdgeStyle;rounded=0;orthogonalLoop=1;jettySize=auto;html=1;" edge="1" parent="1" source="_EaelXhhroBqvKa-fgG_-1" target="_EaelXhhroBqvKa-fgG_-4">
          <mxGeometry relative="1" as="geometry" />
        </mxCell>
        <mxCell id="_EaelXhhroBqvKa-fgG_-1" value="Start game" style="rounded=1;whiteSpace=wrap;html=1;" vertex="1" parent="1">
          <mxGeometry x="540" y="40" width="120" height="40" as="geometry" />
        </mxCell>
        <mxCell id="_EaelXhhroBqvKa-fgG_-5" style="edgeStyle=orthogonalEdgeStyle;rounded=0;orthogonalLoop=1;jettySize=auto;html=1;entryX=0.5;entryY=0;entryDx=0;entryDy=0;" edge="1" parent="1" source="_EaelXhhroBqvKa-fgG_-4" target="_EaelXhhroBqvKa-fgG_-8">
          <mxGeometry relative="1" as="geometry">
            <mxPoint x="600" y="180" as="targetPoint" />
          </mxGeometry>
        </mxCell>
        <mxCell id="_EaelXhhroBqvKa-fgG_-4" value="Player places bet" style="rounded=1;whiteSpace=wrap;html=1;" vertex="1" parent="1">
          <mxGeometry x="540" y="110" width="120" height="40" as="geometry" />
        </mxCell>
        <mxCell id="_EaelXhhroBqvKa-fgG_-12" style="edgeStyle=orthogonalEdgeStyle;rounded=0;orthogonalLoop=1;jettySize=auto;html=1;exitX=1;exitY=0.5;exitDx=0;exitDy=0;entryX=0;entryY=0.5;entryDx=0;entryDy=0;" edge="1" parent="1" source="_EaelXhhroBqvKa-fgG_-8" target="_EaelXhhroBqvKa-fgG_-11">
          <mxGeometry relative="1" as="geometry" />
        </mxCell>
        <mxCell id="_EaelXhhroBqvKa-fgG_-13" value="Yes" style="edgeLabel;html=1;align=center;verticalAlign=middle;resizable=0;points=[];labelBorderColor=#FFFFFF;" vertex="1" connectable="0" parent="_EaelXhhroBqvKa-fgG_-12">
          <mxGeometry x="-0.0395" y="1" relative="1" as="geometry">
            <mxPoint as="offset" />
          </mxGeometry>
        </mxCell>
        <mxCell id="_EaelXhhroBqvKa-fgG_-19" style="edgeStyle=orthogonalEdgeStyle;rounded=0;orthogonalLoop=1;jettySize=auto;html=1;exitX=0;exitY=0.5;exitDx=0;exitDy=0;entryX=0;entryY=0.5;entryDx=0;entryDy=0;" edge="1" parent="1" source="_EaelXhhroBqvKa-fgG_-8" target="_EaelXhhroBqvKa-fgG_-4">
          <mxGeometry relative="1" as="geometry">
            <Array as="points">
              <mxPoint x="500" y="215" />
              <mxPoint x="500" y="130" />
            </Array>
          </mxGeometry>
        </mxCell>
        <mxCell id="_EaelXhhroBqvKa-fgG_-21" value="No" style="edgeLabel;html=1;align=center;verticalAlign=middle;resizable=0;points=[];labelBorderColor=#FFFFFF;" vertex="1" connectable="0" parent="_EaelXhhroBqvKa-fgG_-19">
          <mxGeometry x="-0.827" y="-1" relative="1" as="geometry">
            <mxPoint x="-13" y="1" as="offset" />
          </mxGeometry>
        </mxCell>
        <mxCell id="_EaelXhhroBqvKa-fgG_-8" value="All players made bet?" style="rhombus;whiteSpace=wrap;html=1;" vertex="1" parent="1">
          <mxGeometry x="555" y="180" width="90" height="70" as="geometry" />
        </mxCell>
        <mxCell id="_EaelXhhroBqvKa-fgG_-25" style="edgeStyle=orthogonalEdgeStyle;rounded=0;orthogonalLoop=1;jettySize=auto;html=1;entryX=0.5;entryY=0;entryDx=0;entryDy=0;" edge="1" parent="1" source="_EaelXhhroBqvKa-fgG_-11" target="_EaelXhhroBqvKa-fgG_-24">
          <mxGeometry relative="1" as="geometry" />
        </mxCell>
        <mxCell id="_EaelXhhroBqvKa-fgG_-11" value="Dealer deals" style="rounded=1;whiteSpace=wrap;html=1;" vertex="1" parent="1">
          <mxGeometry x="700" y="195" width="120" height="40" as="geometry" />
        </mxCell>
        <mxCell id="_EaelXhhroBqvKa-fgG_-24" value="All players made bet?" style="rhombus;whiteSpace=wrap;html=1;" vertex="1" parent="1">
          <mxGeometry x="715" y="270" width="90" height="70" as="geometry" />
        </mxCell>
      </root>
    </mxGraphModel>
  </diagram>
</mxfile>
